<?xml version="1.0" encoding="UTF-8" standalone="no"?>
<!-- Created with Inkscape (http://www.inkscape.org/) -->

<svg
   id="svg2"
   version="1.1"
   inkscape:version="1.4 (e7c3feb100, 2024-10-09)"
   width="673.09302"
   height="664.52124"
   xml:space="preserve"
   sodipodi:docname="logo_ecologistas.svg"
   inkscape:export-filename="logo-ecologistas.png"
   inkscape:export-xdpi="300"
   inkscape:export-ydpi="300"
   viewBox="0 0 713.35146 704.267"
   xmlns:inkscape="http://www.inkscape.org/namespaces/inkscape"
   xmlns:sodipodi="http://sodipodi.sourceforge.net/DTD/sodipodi-0.dtd"
   xmlns="http://www.w3.org/2000/svg"
   xmlns:svg="http://www.w3.org/2000/svg"
   xmlns:rdf="http://www.w3.org/1999/02/22-rdf-syntax-ns#"
   xmlns:cc="http://creativecommons.org/ns#"
   xmlns:dc="http://purl.org/dc/elements/1.1/"><metadata
     id="metadata8"><rdf:RDF><cc:Work
         rdf:about=""><dc:format>image/svg+xml</dc:format><dc:type
           rdf:resource="http://purl.org/dc/dcmitype/StillImage" /></cc:Work></rdf:RDF></metadata><defs
     id="defs6"><clipPath
       clipPathUnits="userSpaceOnUse"
       id="clipPath16"><path
         d="M 19.068,251.685 H 575.433 V 799.37 H 19.068 Z"
         id="path18" /></clipPath><clipPath
       clipPathUnits="userSpaceOnUse"
       id="clipPath28"><path
         d="M 19.068,251.685 H 575.433 V 799.37 H 19.068 Z"
         id="path30" /></clipPath><clipPath
       clipPathUnits="userSpaceOnUse"
       id="clipPath42"><path
         d="M 54.758,290.777 H 562.01 v 503.08 H 54.758 Z"
         id="path44" /></clipPath><clipPath
       clipPathUnits="userSpaceOnUse"
       id="clipPath28-3"><path
         inkscape:connector-curvature="0"
         d="M 19.068,251.685 H 575.433 V 799.37 H 19.068 Z"
         id="path30-6" /></clipPath></defs><sodipodi:namedview
     pagecolor="#ffffff"
     bordercolor="#666666"
     borderopacity="1"
     objecttolerance="10"
     gridtolerance="10"
     guidetolerance="10"
     inkscape:pageopacity="0"
     inkscape:pageshadow="2"
     inkscape:window-width="3440"
     inkscape:window-height="1440"
     id="namedview4"
     showgrid="false"
     inkscape:zoom="0.22425732"
     inkscape:cx="-245.25398"
     inkscape:cy="421.39093"
     inkscape:window-x="0"
     inkscape:window-y="0"
     inkscape:window-maximized="0"
     inkscape:current-layer="g26"
     inkscape:showpageshadow="0"
     inkscape:pagecheckerboard="1"
     inkscape:deskcolor="#d1d1d1"
     inkscape:clip-to-page="false" /><g
     id="g10"
     inkscape:groupmode="layer"
     inkscape:label="logo_ecologistasenaccion"
     transform="matrix(1.25,0,0,-1.25,-46.19825,999.21225)"><g
       id="g12"
       transform="translate(16.103385,-15.898299)"><g
         id="g14"
         clip-path="url(#clipPath16)"><g
           id="g20"
           transform="translate(575.4336,494.2158)"><path
             d="m 0,0 c 0,-109.949 -78.245,-226.463 -225.177,-226.463 h -313.297 l -10e-4,291.597 c 0,159.4 110.746,240.02 277.443,240.02 H 0 Z"
             style="fill:#009748;fill-opacity:1;fill-rule:evenodd;stroke:none"
             id="path22" /></g></g></g><g
       id="g24"
       transform="translate(16.103385,-15.898299)"><g
         id="g26"
         clip-path="url(#clipPath28)"><text
   transform="matrix(1,0,0,-0.91716193,52.1792,353.665)"
   id="text32"
   style="line-height:0%"
   y="0"><tspan
     style="font-style:italic;font-variant:normal;font-weight:bold;font-stretch:normal;font-size:87.2256px;line-height:1.25;font-family:'Gill Sans';-inkscape-font-specification:'Gill Sans, Bold Italic';font-variant-ligatures:normal;font-variant-caps:normal;font-variant-numeric:normal;font-variant-east-asian:normal;writing-mode:lr-tb;fill:#ffffff;fill-opacity:1;fill-rule:nonzero;stroke:none"
     x="0 43.263897 82.864319 130.4895 151.94699 199.39772 241.26601 263.24686 296.39258 326.92154 374.80841"
     y="0"
     sodipodi:role="line"
     id="tspan34">ecologistas</tspan><tspan
     style="font-style:italic;font-variant:normal;font-weight:bold;font-stretch:normal;font-size:87.2256px;line-height:1.25;font-family:'Gill Sans';-inkscape-font-specification:'Gill Sans, Bold Italic';font-variant-ligatures:normal;font-variant-caps:normal;font-variant-numeric:normal;font-variant-east-asian:normal;writing-mode:lr-tb;fill:#ffffff;fill-opacity:1;fill-rule:nonzero;stroke:none"
     x="0 44.485058 92.633591 116.8823 165.03084 205.93964 246.84845 269.5271 318.63513"
     y="74.141762"
     sodipodi:role="line"
     id="tspan36">en acción</tspan></text>
</g></g><g
       id="g38"
       transform="translate(16.103385,-15.898299)"><g
         id="g40"
         clip-path="url(#clipPath42)"><g
           id="g46"
           transform="translate(175.061,595.0933)"><path
             d="m 0,0 c 0,0 12.709,-0.604 16.339,-1.211 1.815,-0.604 6.06,-6.052 10.296,-13.922 4.236,-7.87 9.68,-15.74 29.049,-17.555 19.378,-1.819 16.958,0 26.636,-3.03 10.298,-3.025 11.505,-12.107 10.905,-23.003 -1.215,-10.297 -7.267,-27.851 1.807,-34.502 9.689,12.71 19.987,25.42 29.674,37.528 16.948,19.977 42.368,26.636 46.605,-5.448 1.822,-10.895 3.029,-25.429 9.689,-38.747 7.866,-15.125 22.399,-29.049 34.501,-35.11 0,33.303 -7.257,71.435 -10.288,87.175 8.484,15.137 7.267,13.318 12.719,19.374 6.052,6.659 14.526,11.499 28.443,-3.026 13.925,-14.528 27.244,-30.877 49.035,-29.666 -6.05,12.715 -33.286,56.905 -41.16,68.409 -7.875,11.5 -8.474,30.269 7.266,42.377 15.739,12.71 42.377,29.053 48.427,33.898 -18.769,0.608 -79.301,-0.604 -95.04,1.212 -16.347,1.818 -20.586,12.106 -16.956,21.187 3.638,9.081 7.874,14.529 6.06,18.164 -8.474,-1.82 -29.058,-12.716 -43.583,-18.164 -15.14,-5.448 -26.638,2.422 -33.304,10.293 -6.659,7.871 -16.339,29.055 -19.977,34.505 -3.029,6.052 -13.318,-10.291 -14.525,-27.242 -1.215,-20.581 -1.215,-32.689 17.555,-32.086 18.161,1.212 27.852,1.819 46.613,-1.814 18.762,-3.633 78.701,-32.691 77.486,-58.116 -1.814,-24.821 -16.34,-67.801 -92.618,-65.987 -37.54,1.212 -53.271,14.529 -61.148,23.007 -7.864,9.078 -6.658,12.71 -6.658,17.556 -0.609,9.683 6.658,30.268 16.348,43.587 9.08,12.71 20.585,24.213 36.924,23.002 16.349,-1.211 22.399,-9.081 24.222,-13.926 -0.608,-6.051 -0.608,-9.684 -0.608,-9.684 0,0 -50.251,0 -48.428,-29.662 1.207,-30.269 32.689,-35.717 49.635,-35.717 17.556,0.603 47.828,26.636 52.066,44.797 3.629,18.16 -12.111,44.796 -63.569,47.826 -51.448,3.629 -66.59,1.21 -66.59,1.21 0,0 -0.609,13.921 0,18.159 0.608,4.241 23.006,82.33 23.006,82.33 h 21.184 c 0,0 3.63,-10.895 8.473,-22.399 4.846,-10.896 10.906,-22.395 14.534,-28.45 6.061,-9.686 9.081,-11.504 19.379,-6.66 4.236,2.422 26.635,18.767 50.841,29.059 15.141,6.659 31.48,9.08 43.591,7.87 -2.421,-14.529 -8.481,-21.796 -11.503,-24.821 -6.659,-7.263 -20.576,-25.426 -20.576,-25.426 l 75.672,-1.211 c 0,0 44.79,-11.503 55.085,-15.739 10.289,-4.845 18.763,-6.66 18.763,-6.66 V 68.409 c 0,0 -24.214,-1.212 -44.799,-6.659 -12.711,-3.634 -25.427,-9.689 -36.924,-15.741 -24.213,-13.318 -11.503,-24.214 -9.689,-26.636 2.423,-4.237 21.186,-35.717 30.266,-58.721 7.874,-19.981 11.512,-39.957 3.636,-48.431 -7.866,-8.474 -37.532,-0.599 -55.094,12.718 -19.361,15.128 -26.636,19.366 -26.636,19.366 0,0 -7.865,-10.292 -6.651,-13.323 1.206,-3.02 4.844,-4.235 4.844,-4.235 0,0 0.598,-22.401 1.807,-34.503 1.823,-18.77 7.275,-32.088 6.059,-39.351 -1.215,-7.268 -3.629,-15.742 -10.295,-20.585 -1.808,-1.208 -3.022,-1.816 -4.837,-1.816 -3.638,0 -26.037,7.258 -30.881,10.288 -4.837,2.424 -7.867,6.66 -10.288,10.896 -6.659,10.303 -22.999,46.627 -28.45,63.575 -4.846,15.133 -7.259,12.711 -13.927,9.081 -5.443,-3.637 -19.369,-15.749 -32.688,-39.347 -11.502,-21.192 -14.525,-24.222 -20.583,-29.675 -6.661,-6.048 -13.319,-7.263 -15.733,2.432 -2.431,10.288 0,47.212 -1.823,68.405 -1.214,21.184 -0.608,21.791 -9.08,23.002 -3.631,0 -9.082,-1.211 -15.742,-0.603 -7.864,0.603 -16.946,4.236 -27.234,13.318 C 7.257,-29.059 0,-20.582 0,-20.582 Z"
             style="fill:#ffffff;fill-opacity:1;fill-rule:nonzero;stroke:none"
             id="path48" /></g></g></g></g></svg>
