<?xml version="1.0" encoding="UTF-8" standalone="no"?>
<!-- Created with Inkscape (http://www.inkscape.org/) -->

<svg
   width="210mm"
   height="297mm"
   viewBox="0 0 210 297"
   version="1.1"
   id="svg1"
   xml:space="preserve"
   inkscape:version="1.4 (e7c3feb100, 2024-10-09)"
   sodipodi:docname="triangulo-produccion-trabajo-consumo.svg"
   inkscape:export-filename="triangulo-produccion-trabajo-consumo.png"
   inkscape:export-xdpi="72.7684"
   inkscape:export-ydpi="72.7684"
   xmlns:inkscape="http://www.inkscape.org/namespaces/inkscape"
   xmlns:sodipodi="http://sodipodi.sourceforge.net/DTD/sodipodi-0.dtd"
   xmlns="http://www.w3.org/2000/svg"
   xmlns:svg="http://www.w3.org/2000/svg"><sodipodi:namedview
     id="namedview1"
     pagecolor="#505050"
     bordercolor="#ffffff"
     borderopacity="1"
     inkscape:showpageshadow="0"
     inkscape:pageopacity="0"
     inkscape:pagecheckerboard="1"
     inkscape:deskcolor="#d1d1d1"
     inkscape:document-units="mm"
     inkscape:zoom="1.4235831"
     inkscape:cx="396.18342"
     inkscape:cy="441.49163"
     inkscape:window-width="1920"
     inkscape:window-height="1008"
     inkscape:window-x="0"
     inkscape:window-y="0"
     inkscape:window-maximized="1"
     inkscape:current-layer="layer1" /><defs
     id="defs1"><marker
       style="overflow:visible"
       id="RoundedArrow"
       refX="0"
       refY="0"
       orient="auto-start-reverse"
       inkscape:stockid="Rounded arrow"
       markerWidth="0.5"
       markerHeight="0.5"
       viewBox="0 0 1 1"
       inkscape:isstock="true"
       inkscape:collect="always"
       preserveAspectRatio="xMidYMid"><path
         transform="scale(0.7)"
         d="m -0.21114562,-4.1055728 6.42229122,3.21114561 a 1,1 90 0 1 0,1.78885438 L -0.21114562,4.1055728 A 1.236068,1.236068 31.717474 0 1 -2,3 v -6 a 1.236068,1.236068 148.28253 0 1 1.78885438,-1.1055728 z"
         style="fill:context-stroke;fill-rule:evenodd;stroke:none"
         id="path8" /></marker><marker
       style="overflow:visible"
       id="RoundedArrow-2"
       refX="0"
       refY="0"
       orient="auto-start-reverse"
       inkscape:stockid="Rounded arrow"
       markerWidth="0.5"
       markerHeight="0.5"
       viewBox="0 0 1 1"
       inkscape:isstock="true"
       inkscape:collect="always"
       preserveAspectRatio="xMidYMid"><path
         transform="scale(0.7)"
         d="m -0.21114562,-4.1055728 6.42229122,3.21114561 a 1,1 90 0 1 0,1.78885438 L -0.21114562,4.1055728 A 1.236068,1.236068 31.717474 0 1 -2,3 v -6 a 1.236068,1.236068 148.28253 0 1 1.78885438,-1.1055728 z"
         style="fill:context-stroke;fill-rule:evenodd;stroke:none"
         id="path8-6" /></marker><marker
       style="overflow:visible"
       id="RoundedArrow-7"
       refX="0"
       refY="0"
       orient="auto-start-reverse"
       inkscape:stockid="Rounded arrow"
       markerWidth="0.5"
       markerHeight="0.5"
       viewBox="0 0 1 1"
       inkscape:isstock="true"
       inkscape:collect="always"
       preserveAspectRatio="xMidYMid"><path
         transform="scale(0.7)"
         d="m -0.21114562,-4.1055728 6.42229122,3.21114561 a 1,1 90 0 1 0,1.78885438 L -0.21114562,4.1055728 A 1.236068,1.236068 31.717474 0 1 -2,3 v -6 a 1.236068,1.236068 148.28253 0 1 1.78885438,-1.1055728 z"
         style="fill:context-stroke;fill-rule:evenodd;stroke:none"
         id="path8-2" /></marker></defs><g
     inkscape:label="Capa 1"
     inkscape:groupmode="layer"
     id="layer1"><g
       id="g3"
       transform="translate(-5.2810623)"><path
         d="m 100.28107,41.956818 c -0.790181,0 -1.428574,0.638395 -1.428574,1.428577 v 10.714284 2.14285 3.571428 c 0,1.183038 0.959822,2.142861 2.142854,2.142861 h 18.57142 c 1.18304,0 2.14286,-0.959823 2.14286,-2.142861 v -5.714278 -6.776791 c 0,-0.8125 -0.86607,-1.32589 -1.58036,-0.941958 l -6.99107,3.76339 v -2.821432 c 0,-0.8125 -0.86606,-1.32589 -1.58035,-0.941958 l -6.99107,3.76339 v -6.758925 c 0,-0.790182 -0.63839,-1.428577 -1.42857,-1.428577 z"
         id="path1-2"
         style="fill:#ffe680;stroke-width:0.0446427" /><text
         xml:space="preserve"
         style="font-style:normal;font-variant:normal;font-weight:bold;font-stretch:normal;font-size:7.05556px;line-height:1.25;font-family:Ubuntu;-inkscape-font-specification:'Ubuntu, Bold';font-variant-ligatures:normal;font-variant-caps:normal;font-variant-numeric:normal;font-variant-east-asian:normal;text-align:end;text-orientation:upright;text-anchor:end;stroke-width:0.264583"
         x="124.38161"
         y="73.599495"
         id="text1"><tspan
           sodipodi:role="line"
           id="tspan1"
           style="font-style:normal;font-variant:normal;font-weight:bold;font-stretch:normal;font-size:7.05556px;font-family:Ubuntu;-inkscape-font-specification:'Ubuntu, Bold';font-variant-ligatures:normal;font-variant-caps:normal;font-variant-numeric:normal;font-variant-east-asian:normal;fill:#ffe680;stroke-width:0.264583"
           x="124.38161"
           y="73.599495">Producir</tspan></text></g><g
       id="g4"
       transform="translate(-1.8305512,-22.754175)"><g
         id="g2"><path
           d="m 55.984636,139.43719 c 0,-0.51953 0.41797,-0.9375 0.9375,-0.9375 h 1.77734 c 0.85938,0 1.6211,0.5 1.97657,1.25 h 16.05468 c 1.02734,0 1.77734,0.97657 1.50781,1.96875 l -1.60156,5.94923 c -0.33203,1.22656 -1.44531,2.08203 -2.71484,2.08203 h -11.26953 l 0.21093,1.11328 c 0.0859,0.4414 0.47266,0.76172 0.92188,0.76172 h 11.26172 c 0.51953,0 0.9375,0.41797 0.9375,0.9375 0,0.51953 -0.41797,0.9375 -0.9375,0.9375 h -11.26172 c -1.35156,0 -2.51172,-0.96094 -2.76172,-2.28516 l -2.01562,-10.58594 c -0.0273,-0.14844 -0.15625,-0.25391 -0.3086,-0.25391 h -1.77734 c -0.51953,0 -0.9375,-0.41797 -0.9375,-0.9375 z m 5,17.18751 a 1.8750001,1.8750001 0 1 1 3.75,0 1.8750001,1.8750001 0 1 1 -3.75,0 z m 13.125,-1.875 a 1.8750001,1.8750001 0 1 1 0,3.75 1.8750001,1.8750001 0 1 1 0,-3.75 z"
           id="path1-6"
           style="fill:#ffe680;stroke-width:0.0390625" /><text
           xml:space="preserve"
           style="font-style:normal;font-variant:normal;font-weight:bold;font-stretch:normal;font-size:7.05556px;line-height:1.25;font-family:Ubuntu;-inkscape-font-specification:'Ubuntu, Bold';font-variant-ligatures:normal;font-variant-caps:normal;font-variant-numeric:normal;font-variant-east-asian:normal;text-align:end;text-orientation:upright;text-anchor:end;stroke-width:0.264583"
           x="82.799065"
           y="170.62704"
           id="text1-0"
           inkscape:transform-center-x="-32.339174"
           inkscape:transform-center-y="-19.329161"><tspan
             sodipodi:role="line"
             id="tspan1-5"
             style="font-style:normal;font-variant:normal;font-weight:bold;font-stretch:normal;font-size:7.05556px;font-family:Ubuntu;-inkscape-font-specification:'Ubuntu, Bold';font-variant-ligatures:normal;font-variant-caps:normal;font-variant-numeric:normal;font-variant-east-asian:normal;fill:#ffe680;stroke-width:0.264583"
             x="82.799065"
             y="170.62704">Consumir</tspan></text></g><g
         id="g1"><path
           d="m 145.12486,140.43589 a 1.935385,1.935385 0 1 1 3.87077,0 1.935385,1.935385 0 1 1 -3.87077,0 z m -7.99153,6.08034 c 0.20564,-0.49191 0.77013,-0.72577 1.26606,-0.52014 l 0.78626,0.3266 0.92334,-1.53621 c 0.65722,-1.10075 1.84264,-1.77007 3.12081,-1.77007 2.07247,0 3.91108,1.32654 4.56831,3.29419 l 1.39509,4.18123 3.19742,1.33461 1.37896,-1.83861 c 0.25805,-0.34273 0.66932,-0.53627 1.09672,-0.51611 0.42739,0.0202 0.8185,0.25805 1.04026,0.62497 l 3.87077,6.45128 c 0.2379,0.39918 0.24596,0.89512 0.0161,1.29832 -0.22982,0.40321 -0.65722,0.6532 -1.1209,0.6532 h -10.32206 c -0.44755,0 -0.86286,-0.22983 -1.09671,-0.61287 -0.23386,-0.38305 -0.25806,-0.8548 -0.0564,-1.25397 l 0.64513,-1.29026 c 0.21772,-0.43546 0.66528,-0.71367 1.15316,-0.71367 h 1.29026 l 0.90721,-1.20962 -13.5356,-5.6368 c -0.49191,-0.20564 -0.72577,-0.77013 -0.52013,-1.26607 z m 3.33854,3.70142 4.5159,1.93539 c 0.47578,0.2016 0.78222,0.66932 0.78222,1.18542 v 3.87077 c 0,0.71367 -0.57659,1.29026 -1.29026,1.29026 -0.71367,0 -1.29026,-0.57659 -1.29026,-1.29026 v -3.02001 l -2.44342,-1.04833 -1.49186,4.47558 c -0.22579,0.67738 -0.9556,1.04027 -1.63298,0.81447 -0.67738,-0.22579 -1.04027,-0.9556 -0.81851,-1.62895 l 1.93539,-5.80615 0.44352,-1.33058 z"
           id="path1"
           style="fill:#ffe680;stroke-width:0.0403206" /><text
           xml:space="preserve"
           style="font-style:normal;font-variant:normal;font-weight:bold;font-stretch:normal;font-size:7.05556px;line-height:1.25;font-family:Ubuntu;-inkscape-font-specification:'Ubuntu, Bold';font-variant-ligatures:normal;font-variant-caps:normal;font-variant-numeric:normal;font-variant-east-asian:normal;text-align:end;text-orientation:upright;text-anchor:end;stroke-width:0.264583"
           x="162.1817"
           y="170.05907"
           id="text1-6"><tspan
             sodipodi:role="line"
             id="tspan1-9"
             style="font-style:normal;font-variant:normal;font-weight:bold;font-stretch:normal;font-size:7.05556px;font-family:Ubuntu;-inkscape-font-specification:'Ubuntu, Bold';font-variant-ligatures:normal;font-variant-caps:normal;font-variant-numeric:normal;font-variant-east-asian:normal;fill:#ffe680;stroke-width:0.264583"
             x="162.1817"
             y="170.05907">Trabajar</tspan></text></g></g><path
       style="fill:#cccccc;stroke:#cccccc;stroke-width:3;stroke-linecap:butt;stroke-linejoin:miter;stroke-dasharray:none;stroke-opacity:1;marker-end:url(#RoundedArrow)"
       d="M 121.17897,76.573216 137.1627,105.56695"
       id="path6" /><path
       style="fill:#cccccc;stroke:#cccccc;stroke-width:3;stroke-linecap:butt;stroke-linejoin:miter;stroke-dasharray:none;stroke-opacity:1;marker-end:url(#RoundedArrow-2)"
       d="M 126.2439,125.7332 93.138501,125.34656"
       id="path6-6" /><path
       style="fill:#cccccc;stroke:#cccccc;stroke-width:3;stroke-linecap:butt;stroke-linejoin:miter;stroke-dasharray:none;stroke-opacity:1;marker-end:url(#RoundedArrow-7)"
       d="M 70.43769,112.62521 85.523926,83.154528"
       id="path6-9" /></g></svg>
